<?xml version="1.0" encoding="UTF-8"?>
<!-- Created with Inkscape (http://www.inkscape.org/) -->
<svg width="750" height="750" version="1.1" viewBox="0 0 198.44 198.44" xmlns="http://www.w3.org/2000/svg" xmlns:cc="http://creativecommons.org/ns#" xmlns:dc="http://purl.org/dc/elements/1.1/" xmlns:rdf="http://www.w3.org/1999/02/22-rdf-syntax-ns#">
 <title>techhead</title>
 <defs>
  <filter id="filter10816" x="-.095554" y="-.069597" width="1.264" height="1.1826" color-interpolation-filters="sRGB">
   <feFlood flood-color="rgb(180,158,255)" result="flood"/>
   <feComposite in="flood" in2="SourceGraphic" operator="in" result="composite1"/>
   <feGaussianBlur in="composite1" result="blur" stdDeviation="0.6"/>
   <feOffset dx="1.2" dy="1" result="offset"/>
   <feComposite in="offset" in2="SourceGraphic" operator="out" result="composite2"/>
  </filter>
  <filter id="filter24032" x="-.44082" y="-.29586" width="1.8816" height="1.5917" color-interpolation-filters="sRGB">
   <feGaussianBlur stdDeviation="0.46529041"/>
  </filter>
  <filter id="filter14928" x="-.02358" y="-.021465" width="1.0472" height="1.0429" color-interpolation-filters="sRGB">
   <feGaussianBlur result="result6" stdDeviation="5"/>
   <feComposite in="SourceGraphic" in2="result6" operator="atop" result="result8"/>
   <feComposite in="result8" in2="SourceAlpha" result="result9"/>
   <feColorMatrix result="result10" values="1 0 0 0 0 0 1 0 0 0 0 0 1 0 0 0 0 0 1 0 "/>
   <feBlend in="result10" in2="result6"/>
  </filter>
 </defs>
 <g>
  <g>
   <path transform="matrix(.16375 0 0 .17276 -145.96 177.31)" d="m219.14 114.08 7.9916-0.35129c-1.7283 2.281-3.4566 4.5621-2.1218 7.2136s5.7326 5.6732 5.9126 8.9015c0.18004 3.2283-3.8571 6.6632-8.1142 6.652-4.2571-0.0112-8.7342-3.4688-8.3082-6.6973 0.42605-3.2285 5.7552-6.2275 7.3459-8.8089 1.5907-2.5814-0.55773-4.7456-2.7059-6.9095z" fill="#13002c" filter="url(#filter10816)" opacity=".8" stroke="#13002c" stroke-width=".26458px"/>
   <path d="m189.3 415.39c3.7412 0.1326 11.222 0.39778 14.92-1.773 3.6976-2.1708 3.6098-6.777 3.8746-13.523 0.26478-6.7457 0.88205-15.63-1.7304-20.039s-8.4546-4.3413-14.241-4.5155c-5.786-0.17419-11.515-0.59001-14.386 3.2451-2.8704 3.8351-2.8814 11.921-2.9268 18.389s-0.1252 11.319 1.6605 14.063 5.4366 3.3822 7.262 3.701c1.8254 0.31891 1.8255 0.31917 5.5666 0.45178z" fill="none" stroke="#6e73b1" stroke-width=".24021px"/>
   <path d="m193.47 363.85 39.781 0.5444s10.046-1.3413 9.4002 20.711c-0.61836 21.121-0.19544 81.873-0.19544 81.873l-58.386-0.12532-16.914 0.0788 0.48694-81.042s-2.1137-20.978 9.815-21.86c11.929-0.88208 15.589-0.18788 15.589-0.18788z" fill="none" stroke="#6e73b1" stroke-width=".25599px"/>
  </g>
  <ellipse transform="matrix(1.1632 .018756 -.014423 .87668 -68.052 152.62)" cx="233.38" cy="258.21" rx="1.4211" ry="2.1174" fill="#dedff1" filter="url(#filter24032)" stroke="#cbcde8" stroke-linecap="square" stroke-width=".27246" style="mix-blend-mode:normal;paint-order:stroke fill markers"/>
  <path d="m243.15 409.26-0.1599 9.7196" fill="none" stroke="#6e73b1" stroke-width=".21512px"/>
  <path d="m167.01 412.23 0.1294 24.299" fill="none" opacity=".67949" stroke="#6e73b1" stroke-width=".34014px"/>
  <g>
   <ellipse transform="matrix(.99987 .016123 -.01645 .99986 0 0)" cx="207.13" cy="405.37" rx="2.731" ry="2.7037" fill="#241c1c" opacity=".45192" stroke="#11091c" stroke-linecap="square" stroke-width=".42681" style="paint-order:stroke fill markers"/>
   <path transform="matrix(.16375 0 0 .17276 -145.96 177.31)" d="m219.14 114.08 7.9916-0.35129c-1.7283 2.281-3.4566 4.5621-2.1218 7.2136s5.7326 5.6732 5.9126 8.9015c0.18004 3.2283-3.8571 6.6632-8.1142 6.652-4.2571-0.0112-8.7342-3.4688-8.3082-6.6973 0.42605-3.2285 5.7552-6.2275 7.3459-8.8089 1.5907-2.5814-0.55773-4.7456-2.7059-6.9095z" fill="#13002c" filter="url(#filter10816)" opacity=".8" stroke="#13002c" stroke-width=".26458px"/>
   <path id="applelogo" transform="scale(.26458)" d="m561.69 49.365c-8.7515 0.35712-57.513 13.087-99.383 49.988-27.795 24.497-71.669 97.976-68.434 98.332 4.3323-1.5447 151.34-49.223 169.2-148.05 0.00296-0.2148-0.47358-0.31038-1.3789-0.27344zm-167.82 148.32c-0.15959 0.0569-0.1769 0.0681 0.06445 0-0.02359 0.0034-0.04446 0.0022-0.06445 0zm-167.25-36.137c-43.566-0.02083-82.983 14.875-101.96 60.32-55.196 132.21-37.081 236.67 25.76 341.97 29.082 48.732 65.86 121.85 145.29 90.312 0 0 50.555-30.914 79.15-31.422 40.766-0.72369 114.53 40.758 114.53 40.758 0 0 32.042 28.275 83.215-5.4277 51.174-33.703 86.691-156.9 86.691-156.9-1.5151 7.2653-77.129-76.637-78.396-135.83-1.2286-57.348 70.172-138.27 70.172-138.27 4.5277 0.19653-104.13-106.03-243-11.062 0 0-98.287-54.406-181.46-54.445z" fill="#b8d4dc" filter="url(#filter14928)" stroke="#f9f9ff" stroke-width="2.837px" onmouseout="setAttribute('fill-opacity','1.0')" onmouseover=" setAttribute('fill-opacity','0.5')"/>
  </g>
  <g>
   <path d="m208.98 460.79c2e-3 -0.0826-1.1492 0.30604-2.142 1.7592-0.60095 0.8796-1.5726 3.5425-1.4917 3.5238-0.14356 0.0668 3.1848-1.5933 3.6336-5.2829z" fill="none" stroke="#6e73b1" stroke-width=".27966"/>
   <g stroke-linecap="square">
    <ellipse transform="matrix(.99987 .016123 -.01645 .99986 0 0)" cx="192.16" cy="401.56" rx="6.0428" ry="6.4087" fill="none" stroke="#6e73b1" stroke-width=".97745" style="paint-order:stroke fill markers"/>
    <ellipse transform="matrix(.99987 .016123 -.01645 .99986 0 0)" cx="191.85" cy="401.38" rx="2.8786" ry="3.7215" fill="#11091c" opacity=".45192" stroke="#11091c" stroke-width=".51409" style="paint-order:stroke fill markers"/>
    <ellipse transform="matrix(.99987 .016123 -.01645 .99986 0 0)" cx="192.16" cy="382.46" rx="6.0428" ry="6.4087" fill="none" stroke="#6e73b1" stroke-width=".97745" style="paint-order:stroke fill markers"/>
    <ellipse transform="matrix(.99987 .016123 -.01645 .99986 0 0)" cx="191.85" cy="382.29" rx="2.8786" ry="3.7215" fill="#11091c" opacity=".45192" stroke="#11091c" stroke-width=".51409" style="paint-order:stroke fill markers"/>
    <ellipse transform="matrix(.99987 .016123 -.01645 .99986 0 0)" cx="206.37" cy="392.51" rx="6.0428" ry="6.4087" fill="none" stroke="#6e73b1" stroke-width=".97745" style="paint-order:stroke fill markers"/>
    <ellipse transform="matrix(.99987 .016123 -.01645 .99986 0 0)" cx="206.6" cy="392.86" rx="2.8786" ry="3.7215" fill="#11091c" opacity=".45192" stroke="#11091c" stroke-width=".51409" style="paint-order:stroke fill markers"/>
   </g>
  </g>
  <g fill="none">
   <ellipse transform="matrix(.99987 .016123 -.01645 .99986 0 0)" cx="206.16" cy="380.13" rx="2.731" ry="2.7037" stroke="#cbcde8" stroke-linecap="square" stroke-width=".43177" style="paint-order:stroke fill markers"/>
   <path d="m243.15 422.83-0.1599 9.7196" stroke="#6e73b1" stroke-width=".21512px"/>
   <path d="m243.13 394.37-0.1615 7.3552" stroke="#6e73b1" stroke-width=".18807px"/>
  </g>
 </g>
 <metadata>
  <rdf:RDF>
   <cc:Work rdf:about="">
    <dc:title>techhead</dc:title>
   </cc:Work>
  </rdf:RDF>
 </metadata>
</svg>
