<?xml version="1.0" encoding="UTF-8" standalone="no"?>
<!-- Created with Inkscape (http://www.inkscape.org/) -->

<svg
   width="440"
   height="735"
   viewBox="0 0 116.41666 194.46876"
   version="1.1"
   id="svg1217"
   inkscape:version="1.1 (c68e22c387, 2021-05-23)"
   sodipodi:docname="iphone3.svg"
   xmlns:inkscape="http://www.inkscape.org/namespaces/inkscape"
   xmlns:sodipodi="http://sodipodi.sourceforge.net/DTD/sodipodi-0.dtd"
   xmlns="http://www.w3.org/2000/svg"
   xmlns:svg="http://www.w3.org/2000/svg">
  <sodipodi:namedview
     id="namedview1219"
     pagecolor="#000000"
     bordercolor="#666666"
     borderopacity="1.0"
     inkscape:pageshadow="2"
     inkscape:pageopacity="0"
     inkscape:pagecheckerboard="0"
     inkscape:document-units="mm"
     showgrid="false"
     units="px"
     inkscape:zoom="0.46324355"
     inkscape:cx="395.04058"
     inkscape:cy="558.0218"
     inkscape:window-width="1366"
     inkscape:window-height="705"
     inkscape:window-x="-8"
     inkscape:window-y="-8"
     inkscape:window-maximized="1"
     inkscape:current-layer="layer1" />
  <defs
     id="defs1214">
    <inkscape:path-effect
       effect="bspline"
       id="path-effect7493"
       is_visible="true"
       lpeversion="1"
       weight="33.333333"
       steps="2"
       helper_size="0"
       apply_no_weight="true"
       apply_with_weight="true"
       only_selected="false" />
    <inkscape:path-effect
       effect="bspline"
       id="path-effect4014"
       is_visible="true"
       lpeversion="1"
       weight="33.333333"
       steps="2"
       helper_size="0"
       apply_no_weight="true"
       apply_with_weight="true"
       only_selected="false" />
    <inkscape:path-effect
       effect="bspline"
       id="path-effect4008"
       is_visible="true"
       lpeversion="1"
       weight="33.333333"
       steps="2"
       helper_size="0"
       apply_no_weight="true"
       apply_with_weight="true"
       only_selected="false" />
    <inkscape:path-effect
       effect="bspline"
       id="path-effect1513"
       is_visible="true"
       lpeversion="1"
       weight="33.333333"
       steps="2"
       helper_size="0"
       apply_no_weight="true"
       apply_with_weight="true"
       only_selected="false" />
    <inkscape:path-effect
       effect="bspline"
       id="path-effect1317"
       is_visible="true"
       lpeversion="1"
       weight="33.333333"
       steps="2"
       helper_size="0"
       apply_no_weight="true"
       apply_with_weight="true"
       only_selected="false" />
    <inkscape:path-effect
       effect="bspline"
       id="path-effect9651"
       is_visible="true"
       lpeversion="1"
       weight="33.333333"
       steps="2"
       helper_size="0"
       apply_no_weight="true"
       apply_with_weight="true"
       only_selected="false" />
    <inkscape:path-effect
       effect="bspline"
       id="path-effect12039"
       is_visible="true"
       lpeversion="1"
       weight="33.333333"
       steps="2"
       helper_size="0"
       apply_no_weight="true"
       apply_with_weight="true"
       only_selected="false" />
    <inkscape:path-effect
       effect="bspline"
       id="path-effect12340"
       is_visible="true"
       lpeversion="1"
       weight="33.333333"
       steps="2"
       helper_size="0"
       apply_no_weight="true"
       apply_with_weight="true"
       only_selected="false" />
  </defs>
  <g
     inkscape:label="Layer 1"
     inkscape:groupmode="layer"
     id="layer1">
    <path
       style="fill:#c0c0c0;fill-opacity:1;stroke:#c1e2f1;stroke-width:0.0324237px;stroke-linecap:butt;stroke-linejoin:miter;stroke-opacity:1"
       d="m 43.763159,214.20463 c -0.0503,0 -0.0941,-2.26237 0.750517,-1.91539 0.477377,0.1961 0.375257,1.91539 0.375257,1.91539 z"
       id="path14297"
       sodipodi:nodetypes="cscc" />
    <path
       style="fill:#c0c0c0;fill-opacity:1;stroke:#c1e2f1;stroke-width:0.0324237px;stroke-linecap:butt;stroke-linejoin:miter;stroke-opacity:1"
       d="m 45.66519,214.20463 c -0.0503,0 -0.0941,-2.26237 0.750524,-1.91539 0.477377,0.1961 0.37526,1.91539 0.37526,1.91539 z"
       id="path5947"
       sodipodi:nodetypes="cscc" />
    <path
       style="fill:#c0c0c0;fill-opacity:1;stroke:#c1e2f1;stroke-width:0.0324237px;stroke-linecap:butt;stroke-linejoin:miter;stroke-opacity:1"
       d="m 47.567228,214.20463 c -0.0503,0 -0.0941,-2.26237 0.750537,-1.91539 0.477377,0.1961 0.375237,1.91539 0.375237,1.91539 z"
       id="path5953"
       sodipodi:nodetypes="cscc" />
    <path
       style="fill:#c0c0c0;fill-opacity:1;stroke:#c1e2f1;stroke-width:0.0324237px;stroke-linecap:butt;stroke-linejoin:miter;stroke-opacity:1"
       d="m 49.469279,214.20463 c -0.0503,0 -0.0941,-2.26237 0.750514,-1.91539 0.477387,0.1961 0.375257,1.91539 0.375257,1.91539 z"
       id="path5959"
       sodipodi:nodetypes="cscc" />
    <path
       style="fill:#c0c0c0;fill-opacity:1;stroke:#c1e2f1;stroke-width:0.0324237px;stroke-linecap:butt;stroke-linejoin:miter;stroke-opacity:1"
       d="m 51.371307,214.20463 c -0.0503,0 -0.0941,-2.26237 0.750524,-1.91539 0.47738,0.1961 0.37526,1.91539 0.37526,1.91539 z"
       id="path5965"
       sodipodi:nodetypes="cscc" />
    <path
       style="fill:#c0c0c0;fill-opacity:1;stroke:#c1e2f1;stroke-width:0.0324237px;stroke-linecap:butt;stroke-linejoin:miter;stroke-opacity:1"
       d="m 53.273345,214.20463 c -0.0503,0 -0.0941,-2.26237 0.750527,-1.91539 0.477377,0.1961 0.375247,1.91539 0.375247,1.91539 z"
       id="path6012"
       sodipodi:nodetypes="cscc" />
    <path
       style="fill:#c0c0c0;fill-opacity:1;stroke:#c1e2f1;stroke-width:0.0324237px;stroke-linecap:butt;stroke-linejoin:miter;stroke-opacity:1"
       d="m 55.175386,214.20463 c -0.0503,0 -0.0941,-2.26237 0.750514,-1.91539 0.477387,0.1961 0.37526,1.91539 0.37526,1.91539 z"
       id="path6018-4"
       sodipodi:nodetypes="cscc" />
    <path
       style="fill:#c0c0c0;fill-opacity:1;stroke:#c1e2f1;stroke-width:0.0324237px;stroke-linecap:butt;stroke-linejoin:miter;stroke-opacity:1"
       d="m 57.077414,214.20463 c -0.0503,0 -0.0941,-2.26237 0.750537,-1.91539 0.477367,0.1961 0.375247,1.91539 0.375247,1.91539 z"
       id="path6024"
       sodipodi:nodetypes="cscc" />
    <path
       style="fill:#c0c0c0;fill-opacity:1;stroke:#c1e2f1;stroke-width:0.0324237px;stroke-linecap:butt;stroke-linejoin:miter;stroke-opacity:1"
       d="m 58.979465,214.20463 c -0.0503,0 -0.0941,-2.26237 0.750524,-1.91539 0.47738,0.1961 0.37526,1.91539 0.37526,1.91539 z"
       id="path6030"
       sodipodi:nodetypes="cscc" />
    <path
       style="fill:#c0c0c0;fill-opacity:1;stroke:#c1e2f1;stroke-width:0.0324237px;stroke-linecap:butt;stroke-linejoin:miter;stroke-opacity:1"
       d="m 60.881509,214.20463 c -0.0503,0 -0.0941,-2.26237 0.75052,-1.91539 0.47739,0.1961 0.37526,1.91539 0.37526,1.91539 z"
       id="path6036"
       sodipodi:nodetypes="cscc" />
    <path
       style="fill:#c0c0c0;fill-opacity:1;stroke:#c1e2f1;stroke-width:0.0324237px;stroke-linecap:butt;stroke-linejoin:miter;stroke-opacity:1"
       d="m 62.783549,214.20463 c -0.0503,0 -0.0941,-2.26237 0.75053,-1.91539 0.47738,0.1961 0.37526,1.91539 0.37526,1.91539 z"
       id="path6042"
       sodipodi:nodetypes="cscc" />
    <path
       style="fill:#c1e2f1;fill-opacity:1;stroke:#c1e2f1;stroke-width:0.372577;stroke-linecap:butt;stroke-linejoin:miter;stroke-miterlimit:4;stroke-dasharray:none;stroke-opacity:1"
       d="m 29.516913,0.38049996 c 16.270802,0.13969199 42.381294,-6.77e-6 58.459233,-0.13970843 16.077944,-0.13970166 22.123104,-0.27939755 25.145654,3.28309087 3.02255,3.5624885 3.02255,10.8266756 3.02255,40.0940646 0,29.26739 0,80.535783 0.0643,109.243933 0.0643,28.70814 0.19294,34.85476 -3.08693,37.99788 -3.27986,3.14313 -9.96812,3.28282 -26.367826,3.35267 -16.399701,0.0698 -42.509664,0.0698 -58.651912,0.0698 -16.142247,0 -22.3160287,0 -25.2744492,-3.70199 -2.9584205,-3.702 -2.70117955,-11.10588 -2.57255327,-40.09386 C 0.3836158,121.49844 0.3836158,70.928531 0.3836158,42.15053 c 0,-28.778002 0,-35.7627978 3.215736,-39.0458038 3.215736,-3.28300594 9.6467592,-2.86391823 25.9175612,-2.72422624 z"
       id="path1315"
       inkscape:path-effect="#path-effect1317"
       inkscape:original-d="M 19.67707,0.65989153 C 45.787716,0.52038699 71.898208,0.38068829 98.008506,0.24079546 c 6.045584,-0.13950735 12.090744,-0.27920325 18.135844,-0.41909609 1.9e-4,7.26467153 1.9e-4,14.52885863 0,21.79299663 1.9e-4,51.270641 1.9e-4,102.539034 0,153.808274 0.12881,6.14705 0.25744,12.29367 0.38587,18.44022 -6.68835,0.13989 -13.37661,0.27959 -20.065185,0.41909 -26.110832,0 -52.220795,0 -78.331442,0 -6.173848,0 -12.3476297,0 -18.52171536,0 0.25742993,-7.40398 0.51467076,-14.80786 0.77173816,-22.21208 1.7886e-4,-50.57176 1.7886e-4,-101.141669 0,-151.712793 1.7886e-4,-6.984879 1.7886e-4,-13.9696748 0,-20.95480372 C 6.815076,-0.1780981 13.246099,0.2409896 19.67707,0.65989153 Z" />
    <path
       style="fill:#000000;fill-opacity:1;stroke:#000000;stroke-width:0.362462;stroke-linecap:butt;stroke-linejoin:miter;stroke-miterlimit:4;stroke-dasharray:none;stroke-opacity:1"
       d="M 30.344537,2.3124487 C 46.085544,2.4491086 71.345853,2.3124421 86.900274,2.175773 102.4547,2.0391039 108.30303,1.90244 111.22716,5.3876021 c 2.92414,3.4851621 2.92414,10.5916719 2.92414,39.2237859 0,28.632114 0,78.787692 0.0622,106.872702 0.0622,28.08501 0.18666,34.09821 -2.98641,37.17311 -3.17307,3.0749 -9.64356,3.21156 -25.509277,3.2799 -15.865713,0.0683 -41.125508,0.0683 -56.742145,0.0683 -15.616638,0 -21.5893945,0 -24.4514859,-3.62164 C 1.6621107,184.76215 1.9109757,177.51898 2.035414,149.16021 2.1598522,120.80143 2.1598522,71.329173 2.1598522,43.175823 c 0,-28.15335 0,-34.9865344 3.1110287,-38.1982798 C 8.3819095,1.7657979 14.60353,2.1757889 30.344537,2.3124487 Z"
       id="path1509"
       inkscape:path-effect="#path-effect1513"
       inkscape:original-d="M 20.82509,2.5857759 C 46.085545,2.4492993 71.345854,2.3126329 96.605986,2.1757766 102.4547,2.0392974 108.30303,1.9026337 114.1513,1.7657774 c 1.8e-4,7.1069868 1.8e-4,14.2134966 0,21.3199606 1.8e-4,50.157764 1.8e-4,100.313342 0,150.469732 0.12461,6.01363 0.24905,12.02683 0.37332,18.03997 -6.47058,0.13685 -12.94107,0.27352 -19.411856,0.40999 -25.260644,0 -50.520439,0 -75.780894,0 -5.97282,0 -11.9455765,0 -17.918628,0 0.2490484,-7.24327 0.4979135,-14.48644 0.7466102,-21.72995 1.729e-4,-49.47405 1.729e-4,-98.946307 0,-148.41974 1.729e-4,-6.833267 1.729e-4,-13.6664514 0,-20.4999619 C 8.3818978,1.7659755 14.603518,2.1759665 20.82509,2.5857759 Z" />
    <path
       style="fill:#c1e2f1;fill-opacity:1;stroke:#c1e2f1;stroke-width:0.145987px;stroke-linecap:butt;stroke-linejoin:miter;stroke-opacity:1"
       d="m 191.00899,20.785786 c -5.9e-4,0.316552 7.28584,0.616553 6.18234,-4.702665 -0.62364,-3.0065 -6.16345,-2.382279 -6.16345,-2.382279 z"
       id="path6018"
       sodipodi:nodetypes="cscc" />
    <rect
       style="fill:#c1e2f1;fill-opacity:1;fill-rule:evenodd;stroke:#c1e2f1;stroke-width:0.168746;stroke-linecap:square;stroke-miterlimit:4;stroke-dasharray:none;stroke-dashoffset:0;stroke-opacity:1;paint-order:stroke fill markers"
       id="rect6020"
       width="7.2658229"
       height="21.435862"
       x="-20.279524"
       y="-191.40622"
       transform="matrix(0.00266596,-0.99999645,-0.99999442,-0.00334132,0,0)" />
    <path
       style="fill:#c1e2f1;fill-opacity:1;stroke:#c1e2f1;stroke-width:0.145987px;stroke-linecap:butt;stroke-linejoin:miter;stroke-opacity:1"
       d="m 170.27419,13.715912 c 6.5e-4,-0.316559 -7.28593,-0.61656 -6.1824,4.702679 0.62368,3.006501 6.16352,2.382324 6.16352,2.382324 z"
       id="path6022"
       sodipodi:nodetypes="cscc" />
    <path
       style="fill:none;stroke:#cacaca;stroke-width:2.13881;stroke-linecap:butt;stroke-linejoin:miter;stroke-miterlimit:4;stroke-dasharray:none;stroke-opacity:1"
       d="m 49.274571,363.83903 c 2.237058,-8.50233 4.473864,-17.0037 5.694148,-24.74932 1.220285,-7.74563 1.423648,-14.73357 -3.050335,-16.77169 -4.473982,-2.03813 -13.625239,0.87352 -17.591016,5.59054 -3.965777,4.71702 -2.745605,11.23912 4.779188,15.4903 7.524792,4.25117 21.353365,6.2311 28.674411,3.84332 7.321046,-2.38777 8.134431,-9.14232 2.846961,-13.80119 -5.28747,-4.65887 -16.675149,-7.22099 -20.539419,-13.80174 -3.864271,-6.58075 -0.203768,-17.17911 1.626486,-22.71132 1.830253,-5.53221 1.830253,-5.99807 1.830253,-6.46378"
       id="path9649"
       inkscape:path-effect="#path-effect9651"
       inkscape:original-d="m 49.274571,363.83903 c 2.23736,-8.50225 4.474165,-17.00362 6.711056,-25.50654 0.20367,-6.9884 0.40703,-13.97634 0.610102,-20.96427 -9.151349,2.9116 -18.302602,5.82326 -27.454336,8.73512 1.220505,6.52218 2.440668,13.04428 3.660585,19.56666 13.829398,1.97984 27.657971,3.95976 41.486539,5.93988 0.813797,-6.75543 1.627181,-13.50998 2.440375,-20.26547 -11.388454,-2.5622 -22.776133,-5.12432 -34.165387,-7.68689 3.661033,-10.59892 7.321532,-21.19728 10.981743,-31.79575 2.77e-4,-0.46605 2.77e-4,-0.93191 0,-1.39762"
       sodipodi:nodetypes="cccccccccc" />
    <ellipse
       style="fill:#a6a6a6;fill-opacity:1;fill-rule:evenodd;stroke:#a6a6a6;stroke-width:0.38146;stroke-linecap:square;stroke-miterlimit:4;stroke-dasharray:none;stroke-dashoffset:0;stroke-opacity:1;paint-order:stroke fill markers"
       id="ellipse11812"
       cx="53.597641"
       cy="-290.13403"
       rx="6.5184131"
       ry="0.39476892"
       transform="scale(1,-1)" />
    <rect
       style="fill:#b0c2c9;fill-opacity:1;fill-rule:evenodd;stroke:#b0c2c9;stroke-width:1.81482;stroke-linecap:square;stroke-miterlimit:4;stroke-dasharray:none;stroke-dashoffset:0;stroke-opacity:1;paint-order:stroke fill markers"
       id="rect11816"
       width="11.527728"
       height="14.485409"
       x="47.833618"
       y="-289.86145"
       transform="scale(1,-1)" />
    <ellipse
       style="fill:#a6a6a6;fill-opacity:1;fill-rule:evenodd;stroke:#a6a6a6;stroke-width:0.38146;stroke-linecap:square;stroke-miterlimit:4;stroke-dasharray:none;stroke-dashoffset:0;stroke-opacity:1;paint-order:stroke fill markers"
       id="ellipse11818"
       cx="53.597641"
       cy="-274.3024"
       rx="6.5184131"
       ry="0.39476892"
       transform="scale(1,-1)" />
    <ellipse
       style="fill:#ffffff;fill-opacity:1;fill-rule:evenodd;stroke:#ffffff;stroke-width:1.46747;stroke-linecap:square;stroke-miterlimit:4;stroke-dasharray:none;stroke-dashoffset:0;stroke-opacity:1;paint-order:stroke fill markers"
       id="path11624"
       cx="53.837784"
       cy="234.12155"
       rx="15.011769"
       ry="2.5368814" />
    <ellipse
       style="fill:#ffffff;fill-opacity:1;fill-rule:evenodd;stroke:#ffffff;stroke-width:1.46747;stroke-linecap:square;stroke-miterlimit:4;stroke-dasharray:none;stroke-dashoffset:0;stroke-opacity:1;paint-order:stroke fill markers"
       id="ellipse11706"
       cx="53.837784"
       cy="273.76987"
       rx="15.011769"
       ry="2.5368814" />
    <rect
       style="fill:#ffffff;fill-opacity:1;fill-rule:evenodd;stroke:#ffffff;stroke-width:4.26331;stroke-linecap:square;stroke-miterlimit:4;stroke-dasharray:none;stroke-dashoffset:0;stroke-opacity:1;paint-order:stroke fill markers"
       id="rect11730"
       width="27.133978"
       height="33.961861"
       x="40.269897"
       y="236.95036" />
    <path
       style="fill:#b0c2c9;fill-opacity:1;stroke:#b0c2c9;stroke-width:0.838939;stroke-linecap:butt;stroke-linejoin:miter;stroke-miterlimit:4;stroke-dasharray:none;stroke-dashoffset:0;stroke-opacity:1"
       d="m 48.186077,209.98314 c 3.2586,0.0866 8.4428,0.0866 11.701419,-3e-5 3.258619,-0.0867 4.591691,-0.2599 5.184054,0.77984 0.592362,1.03974 0.444242,3.29211 0.444256,7.71038 1.4e-5,4.41827 0.148134,11.0021 1.38e-4,14.03418 -0.147995,3.03208 -0.592345,2.51231 -4.591671,2.3389 -3.999326,-0.17341 -11.553281,-1.6e-4 -15.256271,0.0865 -3.702991,0.0866 -3.554884,0.0866 -3.480944,-2.94538 0.07394,-3.032 0.07394,-9.09604 0.07394,-13.341 0,-4.24496 0,-6.67058 0.6667,-7.79691 0.666699,-1.12632 1.99978,-0.95307 5.258379,-0.86646 z"
       id="path12037"
       inkscape:path-effect="#path-effect12039"
       inkscape:original-d="m 46.260247,210.06975 c 5.18443,3e-4 10.36863,3e-4 15.552552,0 1.33336,-0.17295 2.66643,-0.34622 3.999256,-0.51977 -0.14787,2.25273 -0.295977,4.5051 -0.444367,6.75721 0.14839,6.5844 0.296507,13.16823 0.444367,19.75188 -0.444107,-0.51948 -0.888454,-1.03925 -1.333076,-1.55933 -7.554025,0.17356 -15.10798,0.34681 -22.662348,0.51978 0.14838,3e-4 0.296487,3e-4 0.444367,0 2.6e-4,-6.06401 2.6e-4,-12.12805 0,-18.19254 2.6e-4,-2.42543 2.6e-4,-4.85105 0,-7.277 1.333364,0.17357 2.666445,0.34682 3.999249,0.51977 z" />
    <path
       style="fill:#ffffff;fill-opacity:1;stroke:#ffffff;stroke-width:0.306373px;stroke-linecap:butt;stroke-linejoin:miter;stroke-opacity:1"
       d="m 49.375572,223.87303 c 3.251459,-0.0834 8.082249,-0.0834 10.962138,-0.0834 2.879889,0 3.808869,0 4.273203,-0.75105 0.464335,-0.75104 0.464335,-2.25279 0.464335,-3.83801 0,-1.58522 0,-3.25382 0,-4.58875 0,-1.33493 0,-2.33607 -0.743064,-2.91994 -0.743065,-0.58387 -2.229421,-0.75073 -5.109337,-0.83418 -2.879917,-0.0834 -7.153193,-0.0834 -10.125996,-0.0834 -2.972804,0 -4.644955,0 -5.481216,1.00105 -0.83626,1.00105 -0.83626,3.00341 -0.83626,4.58862 0,1.58521 0,2.75323 0,4.00473 0,1.25149 0,2.58637 0.836296,3.17052 0.836296,0.58415 2.508442,0.41729 5.759901,0.33387 z"
       id="path12338"
       inkscape:path-effect="#path-effect12340"
       inkscape:original-d="m 47.795948,223.78962 c 4.831083,-2.1e-4 9.661873,-2.1e-4 14.492331,0 0.92932,-2.1e-4 1.8583,-2.1e-4 2.786969,0 3.3e-4,-1.50209 3.3e-4,-3.00384 0,-4.50533 3.3e-4,-1.66895 3.3e-4,-3.33755 0,-5.00592 3.3e-4,-1.00149 3.3e-4,-2.00263 0,-3.00353 -1.486089,-0.16719 -2.972449,-0.33402 -4.459169,-0.5006 -4.273149,-2.2e-4 -8.546425,-2.2e-4 -12.820131,0 -1.671901,-2.2e-4 -3.344052,-2.2e-4 -5.016573,0 3.4e-4,2.0021 3.4e-4,4.00446 0,6.0071 3.4e-4,1.16778 3.4e-4,2.3358 0,3.50414 3.4e-4,1.33465 3.4e-4,2.66953 0,4.00473 1.672561,-0.16721 3.344712,-0.33402 5.016573,-0.50059 z" />
    <rect
       style="fill:#afc8d3;fill-opacity:1;fill-rule:evenodd;stroke:#afc8d3;stroke-width:0.0374785;stroke-linecap:square;stroke-miterlimit:4;stroke-dasharray:none;stroke-dashoffset:0;stroke-opacity:1;paint-order:stroke fill markers"
       id="rect14620"
       width="1.1545117"
       height="6.6547027"
       x="43.742134"
       y="214.20525" />
    <path
       style="fill:#afc8d3;fill-opacity:1;stroke:#afc8d3;stroke-width:0.0324237px;stroke-linecap:butt;stroke-linejoin:miter;stroke-opacity:1"
       d="m 44.875173,220.85075 c 0.0503,0 0.0941,2.2624 -0.750514,1.91541 -0.477387,-0.19611 -0.37527,-1.91541 -0.37527,-1.91541 z"
       id="path14702"
       sodipodi:nodetypes="cscc" />
    <rect
       style="fill:#afc8d3;fill-opacity:1;fill-rule:evenodd;stroke:#afc8d3;stroke-width:0.0374785;stroke-linecap:square;stroke-miterlimit:4;stroke-dasharray:none;stroke-dashoffset:0;stroke-opacity:1;paint-order:stroke fill markers"
       id="rect5949"
       width="1.1545117"
       height="6.6547027"
       x="45.644119"
       y="214.20525" />
    <path
       style="fill:#afc8d3;fill-opacity:1;stroke:#afc8d3;stroke-width:0.0324237px;stroke-linecap:butt;stroke-linejoin:miter;stroke-opacity:1"
       d="m 46.777214,220.85075 c 0.0503,0 0.0941,2.2624 -0.750527,1.91541 -0.477377,-0.19611 -0.375257,-1.91541 -0.375257,-1.91541 z"
       id="path5951"
       sodipodi:nodetypes="cscc" />
    <rect
       style="fill:#afc8d3;fill-opacity:1;fill-rule:evenodd;stroke:#afc8d3;stroke-width:0.0374785;stroke-linecap:square;stroke-miterlimit:4;stroke-dasharray:none;stroke-dashoffset:0;stroke-opacity:1;paint-order:stroke fill markers"
       id="rect5955"
       width="1.1545117"
       height="6.6547027"
       x="47.546188"
       y="214.20525" />
    <path
       style="fill:#afc8d3;fill-opacity:1;stroke:#afc8d3;stroke-width:0.0324237px;stroke-linecap:butt;stroke-linejoin:miter;stroke-opacity:1"
       d="m 48.679262,220.85075 c 0.0503,0 0.0941,2.2624 -0.750537,1.91541 -0.477377,-0.19611 -0.375257,-1.91541 -0.375257,-1.91541 z"
       id="path5957"
       sodipodi:nodetypes="cscc" />
    <rect
       style="fill:#afc8d3;fill-opacity:1;fill-rule:evenodd;stroke:#afc8d3;stroke-width:0.0374785;stroke-linecap:square;stroke-miterlimit:4;stroke-dasharray:none;stroke-dashoffset:0;stroke-opacity:1;paint-order:stroke fill markers"
       id="rect5961"
       width="1.1545117"
       height="6.6547027"
       x="49.448196"
       y="214.20525" />
    <path
       style="fill:#afc8d3;fill-opacity:1;stroke:#afc8d3;stroke-width:0.0324237px;stroke-linecap:butt;stroke-linejoin:miter;stroke-opacity:1"
       d="m 50.58129,220.85075 c 0.0503,0 0.0941,2.2624 -0.750514,1.91541 -0.477387,-0.19611 -0.375267,-1.91541 -0.375267,-1.91541 z"
       id="path5963"
       sodipodi:nodetypes="cscc" />
    <rect
       style="fill:#afc8d3;fill-opacity:1;fill-rule:evenodd;stroke:#afc8d3;stroke-width:0.0374785;stroke-linecap:square;stroke-miterlimit:4;stroke-dasharray:none;stroke-dashoffset:0;stroke-opacity:1;paint-order:stroke fill markers"
       id="rect5967"
       width="1.1545117"
       height="6.6547027"
       x="51.350204"
       y="214.20525" />
    <path
       style="fill:#afc8d3;fill-opacity:1;stroke:#afc8d3;stroke-width:0.0324237px;stroke-linecap:butt;stroke-linejoin:miter;stroke-opacity:1"
       d="m 52.483331,220.85075 c 0.0503,0 0.0941,2.2624 -0.750527,1.91541 -0.477377,-0.19611 -0.375267,-1.91541 -0.375267,-1.91541 z"
       id="path5969"
       sodipodi:nodetypes="cscc" />
    <rect
       style="fill:#afc8d3;fill-opacity:1;fill-rule:evenodd;stroke:#afc8d3;stroke-width:0.0374785;stroke-linecap:square;stroke-miterlimit:4;stroke-dasharray:none;stroke-dashoffset:0;stroke-opacity:1;paint-order:stroke fill markers"
       id="rect6014"
       width="1.1545117"
       height="6.6547027"
       x="53.252197"
       y="214.20525" />
    <path
       style="fill:#afc8d3;fill-opacity:1;stroke:#afc8d3;stroke-width:0.0324237px;stroke-linecap:butt;stroke-linejoin:miter;stroke-opacity:1"
       d="m 54.385369,220.85075 c 0.0503,0 0.0941,2.2624 -0.750524,1.91541 -0.477377,-0.19611 -0.37527,-1.91541 -0.37527,-1.91541 z"
       id="path6016"
       sodipodi:nodetypes="cscc" />
    <rect
       style="fill:#afc8d3;fill-opacity:1;fill-rule:evenodd;stroke:#afc8d3;stroke-width:0.0374785;stroke-linecap:square;stroke-miterlimit:4;stroke-dasharray:none;stroke-dashoffset:0;stroke-opacity:1;paint-order:stroke fill markers"
       id="rect6020-7"
       width="1.1545117"
       height="6.6547027"
       x="55.154205"
       y="214.20525" />
    <path
       style="fill:#afc8d3;fill-opacity:1;stroke:#afc8d3;stroke-width:0.0324237px;stroke-linecap:butt;stroke-linejoin:miter;stroke-opacity:1"
       d="m 56.2874,220.85075 c 0.0503,0 0.0941,2.2624 -0.750517,1.91541 -0.477387,-0.19611 -0.375267,-1.91541 -0.375267,-1.91541 z"
       id="path6022-4"
       sodipodi:nodetypes="cscc" />
    <rect
       style="fill:#afc8d3;fill-opacity:1;fill-rule:evenodd;stroke:#afc8d3;stroke-width:0.0374785;stroke-linecap:square;stroke-miterlimit:4;stroke-dasharray:none;stroke-dashoffset:0;stroke-opacity:1;paint-order:stroke fill markers"
       id="rect6026"
       width="1.1545117"
       height="6.6547027"
       x="57.056297"
       y="214.20525" />
    <path
       style="fill:#afc8d3;fill-opacity:1;stroke:#afc8d3;stroke-width:0.0324237px;stroke-linecap:butt;stroke-linejoin:miter;stroke-opacity:1"
       d="m 58.189438,220.85075 c 0.0503,0 0.0941,2.2624 -0.750527,1.91541 -0.477377,-0.19611 -0.375247,-1.91541 -0.375247,-1.91541 z"
       id="path6028"
       sodipodi:nodetypes="cscc" />
    <rect
       style="fill:#afc8d3;fill-opacity:1;fill-rule:evenodd;stroke:#afc8d3;stroke-width:0.0374785;stroke-linecap:square;stroke-miterlimit:4;stroke-dasharray:none;stroke-dashoffset:0;stroke-opacity:1;paint-order:stroke fill markers"
       id="rect6032"
       width="1.1545117"
       height="6.6547027"
       x="58.958298"
       y="214.20525" />
    <path
       style="fill:#afc8d3;fill-opacity:1;stroke:#afc8d3;stroke-width:0.0324237px;stroke-linecap:butt;stroke-linejoin:miter;stroke-opacity:1"
       d="m 60.091489,220.85075 c 0.0503,0 0.0941,2.2624 -0.750537,1.91541 -0.477377,-0.19611 -0.375257,-1.91541 -0.375257,-1.91541 z"
       id="path6034"
       sodipodi:nodetypes="cscc" />
    <rect
       style="fill:#afc8d3;fill-opacity:1;fill-rule:evenodd;stroke:#afc8d3;stroke-width:0.0374785;stroke-linecap:square;stroke-miterlimit:4;stroke-dasharray:none;stroke-dashoffset:0;stroke-opacity:1;paint-order:stroke fill markers"
       id="rect6038"
       width="1.1545117"
       height="6.6547027"
       x="60.860336"
       y="214.20525" />
    <path
       style="fill:#afc8d3;fill-opacity:1;stroke:#afc8d3;stroke-width:0.0324237px;stroke-linecap:butt;stroke-linejoin:miter;stroke-opacity:1"
       d="m 61.993529,220.85075 c 0.0503,0 0.0941,2.2624 -0.75052,1.91541 -0.47738,-0.19611 -0.37527,-1.91541 -0.37527,-1.91541 z"
       id="path6040"
       sodipodi:nodetypes="cscc" />
    <rect
       style="fill:#afc8d3;fill-opacity:1;fill-rule:evenodd;stroke:#afc8d3;stroke-width:0.0374785;stroke-linecap:square;stroke-miterlimit:4;stroke-dasharray:none;stroke-dashoffset:0;stroke-opacity:1;paint-order:stroke fill markers"
       id="rect6044"
       width="1.1545117"
       height="6.6547027"
       x="62.76239"
       y="214.20525" />
    <path
       style="fill:#afc8d3;fill-opacity:1;stroke:#afc8d3;stroke-width:0.0324237px;stroke-linecap:butt;stroke-linejoin:miter;stroke-opacity:1"
       d="m 63.895579,220.85075 c 0.0503,0 0.0941,2.2624 -0.75053,1.91541 -0.47738,-0.19611 -0.37527,-1.91541 -0.37527,-1.91541 z"
       id="path6046"
       sodipodi:nodetypes="cscc" />
    <path
       style="fill:#c1e2f1;fill-opacity:1;stroke:#c1e2f1;stroke-width:0.0324237px;stroke-linecap:butt;stroke-linejoin:miter;stroke-opacity:1"
       d="m 122.32247,214.20463 c -0.0503,0 -0.0941,-2.26237 0.75052,-1.91539 0.47737,0.1961 0.37525,1.91539 0.37525,1.91539 z"
       id="path3970"
       sodipodi:nodetypes="cscc" />
    <path
       style="fill:#c1e2f1;fill-opacity:1;stroke:#c1e2f1;stroke-width:0.0324237px;stroke-linecap:butt;stroke-linejoin:miter;stroke-opacity:1"
       d="m 124.2245,214.20463 c -0.0503,0 -0.0941,-2.26237 0.75052,-1.91539 0.47738,0.1961 0.37526,1.91539 0.37526,1.91539 z"
       id="path3972"
       sodipodi:nodetypes="cscc" />
    <path
       style="fill:#c1e2f1;fill-opacity:1;stroke:#c1e2f1;stroke-width:0.0324237px;stroke-linecap:butt;stroke-linejoin:miter;stroke-opacity:1"
       d="m 126.12654,214.20463 c -0.0503,0 -0.0941,-2.26237 0.75054,-1.91539 0.47737,0.1961 0.37523,1.91539 0.37523,1.91539 z"
       id="path3974"
       sodipodi:nodetypes="cscc" />
    <path
       style="fill:#c1e2f1;fill-opacity:1;stroke:#c1e2f1;stroke-width:0.0324237px;stroke-linecap:butt;stroke-linejoin:miter;stroke-opacity:1"
       d="m 128.02859,214.20463 c -0.0503,0 -0.0941,-2.26237 0.75051,-1.91539 0.47739,0.1961 0.37526,1.91539 0.37526,1.91539 z"
       id="path3976"
       sodipodi:nodetypes="cscc" />
    <path
       style="fill:#c1e2f1;fill-opacity:1;stroke:#c1e2f1;stroke-width:0.0324237px;stroke-linecap:butt;stroke-linejoin:miter;stroke-opacity:1"
       d="m 129.93062,214.20463 c -0.0503,0 -0.0941,-2.26237 0.75052,-1.91539 0.47738,0.1961 0.37526,1.91539 0.37526,1.91539 z"
       id="path3978"
       sodipodi:nodetypes="cscc" />
    <path
       style="fill:#c1e2f1;fill-opacity:1;stroke:#c1e2f1;stroke-width:0.0324237px;stroke-linecap:butt;stroke-linejoin:miter;stroke-opacity:1"
       d="m 131.83266,214.20463 c -0.0503,0 -0.0941,-2.26237 0.75052,-1.91539 0.47738,0.1961 0.37525,1.91539 0.37525,1.91539 z"
       id="path3980"
       sodipodi:nodetypes="cscc" />
    <path
       style="fill:#c1e2f1;fill-opacity:1;stroke:#c1e2f1;stroke-width:0.0324237px;stroke-linecap:butt;stroke-linejoin:miter;stroke-opacity:1"
       d="m 133.7347,214.20463 c -0.0503,0 -0.0941,-2.26237 0.75051,-1.91539 0.47739,0.1961 0.37526,1.91539 0.37526,1.91539 z"
       id="path3982"
       sodipodi:nodetypes="cscc" />
    <path
       style="fill:#c1e2f1;fill-opacity:1;stroke:#c1e2f1;stroke-width:0.0324237px;stroke-linecap:butt;stroke-linejoin:miter;stroke-opacity:1"
       d="m 135.63672,214.20463 c -0.0503,0 -0.0941,-2.26237 0.75054,-1.91539 0.47737,0.1961 0.37525,1.91539 0.37525,1.91539 z"
       id="path3984"
       sodipodi:nodetypes="cscc" />
    <path
       style="fill:#c1e2f1;fill-opacity:1;stroke:#c1e2f1;stroke-width:0.0324237px;stroke-linecap:butt;stroke-linejoin:miter;stroke-opacity:1"
       d="m 137.53878,214.20463 c -0.0503,0 -0.0941,-2.26237 0.75052,-1.91539 0.47738,0.1961 0.37526,1.91539 0.37526,1.91539 z"
       id="path3986"
       sodipodi:nodetypes="cscc" />
    <path
       style="fill:#c1e2f1;fill-opacity:1;stroke:#c1e2f1;stroke-width:0.0324237px;stroke-linecap:butt;stroke-linejoin:miter;stroke-opacity:1"
       d="m 139.44082,214.20463 c -0.0503,0 -0.0941,-2.26237 0.75052,-1.91539 0.47739,0.1961 0.37526,1.91539 0.37526,1.91539 z"
       id="path3988"
       sodipodi:nodetypes="cscc" />
    <path
       style="fill:#c1e2f1;fill-opacity:1;stroke:#c1e2f1;stroke-width:0.0324237px;stroke-linecap:butt;stroke-linejoin:miter;stroke-opacity:1"
       d="m 141.34286,214.20463 c -0.0503,0 -0.0941,-2.26237 0.75053,-1.91539 0.47738,0.1961 0.37526,1.91539 0.37526,1.91539 z"
       id="path3990"
       sodipodi:nodetypes="cscc" />
    <ellipse
       style="fill:#a6a6a6;fill-opacity:1;fill-rule:evenodd;stroke:#a6a6a6;stroke-width:0.38146;stroke-linecap:square;stroke-miterlimit:4;stroke-dasharray:none;stroke-dashoffset:0;stroke-opacity:1;paint-order:stroke fill markers"
       id="ellipse3992"
       cx="132.15695"
       cy="-290.13403"
       rx="6.5184131"
       ry="0.39476892"
       transform="scale(1,-1)" />
    <rect
       style="fill:#bba0a7;fill-opacity:1;fill-rule:evenodd;stroke:#bba0a7;stroke-width:1.81482;stroke-linecap:square;stroke-miterlimit:4;stroke-dasharray:none;stroke-dashoffset:0;stroke-opacity:1;paint-order:stroke fill markers"
       id="rect3994"
       width="11.527728"
       height="14.485409"
       x="126.39294"
       y="-289.86145"
       transform="scale(1,-1)" />
    <ellipse
       style="fill:#a6a6a6;fill-opacity:1;fill-rule:evenodd;stroke:#a6a6a6;stroke-width:0.38146;stroke-linecap:square;stroke-miterlimit:4;stroke-dasharray:none;stroke-dashoffset:0;stroke-opacity:1;paint-order:stroke fill markers"
       id="ellipse3996"
       cx="132.15695"
       cy="-274.3024"
       rx="6.5184131"
       ry="0.39476892"
       transform="scale(1,-1)" />
    <ellipse
       style="fill:#ffffff;fill-opacity:1;fill-rule:evenodd;stroke:#ffffff;stroke-width:1.46747;stroke-linecap:square;stroke-miterlimit:4;stroke-dasharray:none;stroke-dashoffset:0;stroke-opacity:1;paint-order:stroke fill markers"
       id="ellipse3998"
       cx="132.39709"
       cy="234.12155"
       rx="15.011769"
       ry="2.5368814" />
    <ellipse
       style="fill:#ffffff;fill-opacity:1;fill-rule:evenodd;stroke:#ffffff;stroke-width:1.46747;stroke-linecap:square;stroke-miterlimit:4;stroke-dasharray:none;stroke-dashoffset:0;stroke-opacity:1;paint-order:stroke fill markers"
       id="ellipse4000"
       cx="132.39709"
       cy="273.76987"
       rx="15.011769"
       ry="2.5368814" />
    <rect
       style="fill:#ffffff;fill-opacity:1;fill-rule:evenodd;stroke:#ffffff;stroke-width:4.26331;stroke-linecap:square;stroke-miterlimit:4;stroke-dasharray:none;stroke-dashoffset:0;stroke-opacity:1;paint-order:stroke fill markers"
       id="rect4002"
       width="27.133978"
       height="33.961861"
       x="118.82922"
       y="236.95036" />
    <path
       style="fill:#bba0a7;fill-opacity:1;stroke:#bba0a7;stroke-width:0.838939;stroke-linecap:butt;stroke-linejoin:miter;stroke-miterlimit:4;stroke-dasharray:none;stroke-dashoffset:0;stroke-opacity:1"
       d="m 126.74539,209.98314 c 3.2586,0.0866 8.4428,0.0866 11.70142,-3e-5 3.25862,-0.0867 4.59169,-0.2599 5.18405,0.77984 0.59237,1.03974 0.44425,3.29211 0.44426,7.71038 1e-5,4.41827 0.14813,11.0021 1.4e-4,14.03418 -0.148,3.03208 -0.59235,2.51231 -4.59168,2.3389 -3.99933,-0.17341 -11.55328,-1.6e-4 -15.25627,0.0865 -3.70299,0.0866 -3.55488,0.0866 -3.48094,-2.94538 0.0739,-3.032 0.0739,-9.09604 0.0739,-13.341 0,-4.24496 0,-6.67058 0.6667,-7.79691 0.6667,-1.12632 1.99977,-0.95307 5.25838,-0.86646 z"
       id="path4004"
       inkscape:path-effect="#path-effect4008"
       inkscape:original-d="m 124.81956,210.06975 c 5.18443,3e-4 10.36863,3e-4 15.55255,0 1.33336,-0.17295 2.66643,-0.34622 3.99926,-0.51977 -0.14787,2.25273 -0.29598,4.5051 -0.44437,6.75721 0.14839,6.5844 0.29651,13.16823 0.44437,19.75188 -0.44411,-0.51948 -0.88846,-1.03925 -1.33308,-1.55933 -7.55403,0.17356 -15.10798,0.34681 -22.66235,0.51978 0.14838,3e-4 0.29649,3e-4 0.44437,0 2.6e-4,-6.06401 2.6e-4,-12.12805 0,-18.19254 2.6e-4,-2.42543 2.6e-4,-4.85105 0,-7.277 1.33336,0.17357 2.66644,0.34682 3.99925,0.51977 z" />
    <path
       style="fill:#ffffff;fill-opacity:1;stroke:#ffffff;stroke-width:0.306373px;stroke-linecap:butt;stroke-linejoin:miter;stroke-opacity:1"
       d="m 127.93488,223.87303 c 3.25146,-0.0834 8.08225,-0.0834 10.96214,-0.0834 2.87989,0 3.80887,0 4.27321,-0.75105 0.46433,-0.75104 0.46433,-2.25279 0.46433,-3.83801 0,-1.58522 0,-3.25382 0,-4.58875 0,-1.33493 0,-2.33607 -0.74306,-2.91994 -0.74307,-0.58387 -2.22943,-0.75073 -5.10934,-0.83418 -2.87992,-0.0834 -7.1532,-0.0834 -10.126,-0.0834 -2.9728,0 -4.64495,0 -5.48121,1.00105 -0.83626,1.00105 -0.83626,3.00341 -0.83626,4.58862 0,1.58521 0,2.75323 0,4.00473 0,1.25149 0,2.58637 0.8363,3.17052 0.83629,0.58415 2.50844,0.41729 5.75989,0.33387 z"
       id="path4010"
       inkscape:path-effect="#path-effect4014"
       inkscape:original-d="m 126.35526,223.78962 c 4.83108,-2.1e-4 9.66187,-2.1e-4 14.49233,0 0.92932,-2.1e-4 1.8583,-2.1e-4 2.78697,0 3.3e-4,-1.50209 3.3e-4,-3.00384 0,-4.50533 3.3e-4,-1.66895 3.3e-4,-3.33755 0,-5.00592 3.3e-4,-1.00149 3.3e-4,-2.00263 0,-3.00353 -1.48609,-0.16719 -2.97245,-0.33402 -4.45917,-0.5006 -4.27315,-2.2e-4 -8.54643,-2.2e-4 -12.82013,0 -1.6719,-2.2e-4 -3.34405,-2.2e-4 -5.01657,0 3.4e-4,2.0021 3.4e-4,4.00446 0,6.0071 3.4e-4,1.16778 3.4e-4,2.3358 0,3.50414 3.4e-4,1.33465 3.4e-4,2.66953 0,4.00473 1.67256,-0.16721 3.34471,-0.33402 5.01657,-0.50059 z" />
    <rect
       style="fill:#c1e2f1;fill-opacity:1;fill-rule:evenodd;stroke:#c1e2f1;stroke-width:0.0374785;stroke-linecap:square;stroke-miterlimit:4;stroke-dasharray:none;stroke-dashoffset:0;stroke-opacity:1;paint-order:stroke fill markers"
       id="rect4016"
       width="1.1545117"
       height="6.6547027"
       x="122.30145"
       y="214.20525" />
    <path
       style="fill:#c1e2f1;fill-opacity:1;stroke:#c1e2f1;stroke-width:0.0324237px;stroke-linecap:butt;stroke-linejoin:miter;stroke-opacity:1"
       d="m 123.43448,220.85075 c 0.0503,0 0.0941,2.2624 -0.75051,1.91541 -0.47739,-0.19611 -0.37527,-1.91541 -0.37527,-1.91541 z"
       id="path4018"
       sodipodi:nodetypes="cscc" />
    <rect
       style="fill:#c1e2f1;fill-opacity:1;fill-rule:evenodd;stroke:#c1e2f1;stroke-width:0.0374785;stroke-linecap:square;stroke-miterlimit:4;stroke-dasharray:none;stroke-dashoffset:0;stroke-opacity:1;paint-order:stroke fill markers"
       id="rect4020"
       width="1.1545117"
       height="6.6547027"
       x="124.20344"
       y="214.20525" />
    <path
       style="fill:#c1e2f1;fill-opacity:1;stroke:#c1e2f1;stroke-width:0.0324237px;stroke-linecap:butt;stroke-linejoin:miter;stroke-opacity:1"
       d="m 125.33652,220.85075 c 0.0503,0 0.0941,2.2624 -0.75052,1.91541 -0.47738,-0.19611 -0.37526,-1.91541 -0.37526,-1.91541 z"
       id="path4022"
       sodipodi:nodetypes="cscc" />
    <rect
       style="fill:#c1e2f1;fill-opacity:1;fill-rule:evenodd;stroke:#c1e2f1;stroke-width:0.0374785;stroke-linecap:square;stroke-miterlimit:4;stroke-dasharray:none;stroke-dashoffset:0;stroke-opacity:1;paint-order:stroke fill markers"
       id="rect4024"
       width="1.1545117"
       height="6.6547027"
       x="126.10551"
       y="214.20525" />
    <path
       style="fill:#c1e2f1;fill-opacity:1;stroke:#c1e2f1;stroke-width:0.0324237px;stroke-linecap:butt;stroke-linejoin:miter;stroke-opacity:1"
       d="m 127.23857,220.85075 c 0.0503,0 0.0941,2.2624 -0.75053,1.91541 -0.47738,-0.19611 -0.37526,-1.91541 -0.37526,-1.91541 z"
       id="path4026"
       sodipodi:nodetypes="cscc" />
    <rect
       style="fill:#c1e2f1;fill-opacity:1;fill-rule:evenodd;stroke:#c1e2f1;stroke-width:0.0374785;stroke-linecap:square;stroke-miterlimit:4;stroke-dasharray:none;stroke-dashoffset:0;stroke-opacity:1;paint-order:stroke fill markers"
       id="rect4028"
       width="1.1545117"
       height="6.6547027"
       x="128.00751"
       y="214.20525" />
    <path
       style="fill:#c1e2f1;fill-opacity:1;stroke:#c1e2f1;stroke-width:0.0324237px;stroke-linecap:butt;stroke-linejoin:miter;stroke-opacity:1"
       d="m 129.1406,220.85075 c 0.0503,0 0.0941,2.2624 -0.75051,1.91541 -0.47739,-0.19611 -0.37527,-1.91541 -0.37527,-1.91541 z"
       id="path4030"
       sodipodi:nodetypes="cscc" />
    <rect
       style="fill:#c1e2f1;fill-opacity:1;fill-rule:evenodd;stroke:#c1e2f1;stroke-width:0.0374785;stroke-linecap:square;stroke-miterlimit:4;stroke-dasharray:none;stroke-dashoffset:0;stroke-opacity:1;paint-order:stroke fill markers"
       id="rect4032"
       width="1.1545117"
       height="6.6547027"
       x="129.90952"
       y="214.20525" />
    <path
       style="fill:#c1e2f1;fill-opacity:1;stroke:#c1e2f1;stroke-width:0.0324237px;stroke-linecap:butt;stroke-linejoin:miter;stroke-opacity:1"
       d="m 131.04264,220.85075 c 0.0503,0 0.0941,2.2624 -0.75053,1.91541 -0.47737,-0.19611 -0.37526,-1.91541 -0.37526,-1.91541 z"
       id="path4034"
       sodipodi:nodetypes="cscc" />
    <rect
       style="fill:#c1e2f1;fill-opacity:1;fill-rule:evenodd;stroke:#c1e2f1;stroke-width:0.0374785;stroke-linecap:square;stroke-miterlimit:4;stroke-dasharray:none;stroke-dashoffset:0;stroke-opacity:1;paint-order:stroke fill markers"
       id="rect4036"
       width="1.1545117"
       height="6.6547027"
       x="131.81151"
       y="214.20525" />
    <path
       style="fill:#c1e2f1;fill-opacity:1;stroke:#c1e2f1;stroke-width:0.0324237px;stroke-linecap:butt;stroke-linejoin:miter;stroke-opacity:1"
       d="m 132.94468,220.85075 c 0.0503,0 0.0941,2.2624 -0.75052,1.91541 -0.47738,-0.19611 -0.37527,-1.91541 -0.37527,-1.91541 z"
       id="path4038"
       sodipodi:nodetypes="cscc" />
    <rect
       style="fill:#c1e2f1;fill-opacity:1;fill-rule:evenodd;stroke:#c1e2f1;stroke-width:0.0374785;stroke-linecap:square;stroke-miterlimit:4;stroke-dasharray:none;stroke-dashoffset:0;stroke-opacity:1;paint-order:stroke fill markers"
       id="rect4040"
       width="1.1545117"
       height="6.6547027"
       x="133.71352"
       y="214.20525" />
    <path
       style="fill:#c1e2f1;fill-opacity:1;stroke:#c1e2f1;stroke-width:0.0324237px;stroke-linecap:butt;stroke-linejoin:miter;stroke-opacity:1"
       d="m 134.84671,220.85075 c 0.0503,0 0.0941,2.2624 -0.75052,1.91541 -0.47738,-0.19611 -0.37526,-1.91541 -0.37526,-1.91541 z"
       id="path4042"
       sodipodi:nodetypes="cscc" />
    <rect
       style="fill:#c1e2f1;fill-opacity:1;fill-rule:evenodd;stroke:#c1e2f1;stroke-width:0.0374785;stroke-linecap:square;stroke-miterlimit:4;stroke-dasharray:none;stroke-dashoffset:0;stroke-opacity:1;paint-order:stroke fill markers"
       id="rect4044"
       width="1.1545117"
       height="6.6547027"
       x="135.61562"
       y="214.20525" />
    <path
       style="fill:#c1e2f1;fill-opacity:1;stroke:#c1e2f1;stroke-width:0.0324237px;stroke-linecap:butt;stroke-linejoin:miter;stroke-opacity:1"
       d="m 136.74875,220.85075 c 0.0503,0 0.0941,2.2624 -0.75053,1.91541 -0.47738,-0.19611 -0.37525,-1.91541 -0.37525,-1.91541 z"
       id="path4046"
       sodipodi:nodetypes="cscc" />
    <rect
       style="fill:#c1e2f1;fill-opacity:1;fill-rule:evenodd;stroke:#c1e2f1;stroke-width:0.0374785;stroke-linecap:square;stroke-miterlimit:4;stroke-dasharray:none;stroke-dashoffset:0;stroke-opacity:1;paint-order:stroke fill markers"
       id="rect4048"
       width="1.1545117"
       height="6.6547027"
       x="137.51761"
       y="214.20525" />
    <path
       style="fill:#c1e2f1;fill-opacity:1;stroke:#c1e2f1;stroke-width:0.0324237px;stroke-linecap:butt;stroke-linejoin:miter;stroke-opacity:1"
       d="m 138.6508,220.85075 c 0.0503,0 0.0941,2.2624 -0.75054,1.91541 -0.47737,-0.19611 -0.37525,-1.91541 -0.37525,-1.91541 z"
       id="path4050"
       sodipodi:nodetypes="cscc" />
    <rect
       style="fill:#c1e2f1;fill-opacity:1;fill-rule:evenodd;stroke:#c1e2f1;stroke-width:0.0374785;stroke-linecap:square;stroke-miterlimit:4;stroke-dasharray:none;stroke-dashoffset:0;stroke-opacity:1;paint-order:stroke fill markers"
       id="rect4052"
       width="1.1545117"
       height="6.6547027"
       x="139.41965"
       y="214.20525" />
    <path
       style="fill:#c1e2f1;fill-opacity:1;stroke:#c1e2f1;stroke-width:0.0324237px;stroke-linecap:butt;stroke-linejoin:miter;stroke-opacity:1"
       d="m 140.55284,220.85075 c 0.0503,0 0.0941,2.2624 -0.75052,1.91541 -0.47738,-0.19611 -0.37527,-1.91541 -0.37527,-1.91541 z"
       id="path4054"
       sodipodi:nodetypes="cscc" />
    <rect
       style="fill:#c1e2f1;fill-opacity:1;fill-rule:evenodd;stroke:#c1e2f1;stroke-width:0.0374785;stroke-linecap:square;stroke-miterlimit:4;stroke-dasharray:none;stroke-dashoffset:0;stroke-opacity:1;paint-order:stroke fill markers"
       id="rect4056"
       width="1.1545117"
       height="6.6547027"
       x="141.3217"
       y="214.20525" />
    <path
       style="fill:#c1e2f1;fill-opacity:1;stroke:#c1e2f1;stroke-width:0.0324237px;stroke-linecap:butt;stroke-linejoin:miter;stroke-opacity:1"
       d="m 142.45489,220.85075 c 0.0503,0 0.0941,2.2624 -0.75053,1.91541 -0.47738,-0.19611 -0.37527,-1.91541 -0.37527,-1.91541 z"
       id="path4058"
       sodipodi:nodetypes="cscc" />
    <path
       style="fill:none;stroke:#cacaca;stroke-width:2.13881;stroke-linecap:butt;stroke-linejoin:miter;stroke-miterlimit:4;stroke-dasharray:none;stroke-opacity:1"
       d="m 127.06227,363.83903 c 2.23707,-8.50233 4.47389,-17.0037 5.69418,-24.74932 1.22029,-7.74563 1.42365,-14.73357 -3.05035,-16.77169 -4.47401,-2.03813 -13.62531,0.87351 -17.59111,5.59054 -3.9658,4.71702 -2.74562,11.23911 4.77921,15.49029 7.52483,4.25118 21.35348,6.23111 28.67457,3.84333 7.32109,-2.38777 8.13448,-9.14232 2.84698,-13.80119 -5.2875,-4.65887 -16.67525,-7.22099 -20.53954,-13.80174 -3.86429,-6.58075 -0.20377,-17.17911 1.6265,-22.71132 1.83026,-5.53221 1.83026,-5.99807 1.83026,-6.46378"
       id="path7489"
       inkscape:path-effect="#path-effect7493"
       inkscape:original-d="m 127.06227,363.83903 c 2.23737,-8.50225 4.47419,-17.00362 6.71109,-25.50654 0.20368,-6.9884 0.40704,-13.97634 0.61011,-20.96427 -9.1514,2.9116 -18.3027,5.82326 -27.45449,8.73512 1.22051,6.52218 2.44068,13.04428 3.66061,19.56666 13.82947,1.97984 27.65812,3.95976 41.48677,5.93988 0.8138,-6.75543 1.62719,-13.50998 2.44039,-20.26547 -11.38852,-2.5622 -22.77627,-5.12432 -34.16558,-7.68689 3.66105,-10.59892 7.32157,-21.19728 10.9818,-31.79575 2.8e-4,-0.46605 2.8e-4,-0.93191 0,-1.39762"
       sodipodi:nodetypes="cccccccccc" />
  </g>
</svg>
