<?xml version="1.0" encoding="UTF-8" standalone="no"?>
<!-- Created with Inkscape (http://www.inkscape.org/) -->

<svg
   width="135mm"
   height="135mm"
   viewBox="0 0 135 135"
   version="1.1"
   id="svg1"
   inkscape:version="1.3 (0e150ed6c4, 2023-07-21)"
   sodipodi:docname="dark-heart.svg"
   xmlns:inkscape="http://www.inkscape.org/namespaces/inkscape"
   xmlns:sodipodi="http://sodipodi.sourceforge.net/DTD/sodipodi-0.dtd"
   xmlns="http://www.w3.org/2000/svg"
   xmlns:svg="http://www.w3.org/2000/svg">
  <sodipodi:namedview
     id="namedview1"
     pagecolor="#ffffff"
     bordercolor="#666666"
     borderopacity="1.0"
     inkscape:showpageshadow="2"
     inkscape:pageopacity="0.0"
     inkscape:pagecheckerboard="0"
     inkscape:deskcolor="#d1d1d1"
     inkscape:document-units="mm"
     inkscape:zoom="0.45344416"
     inkscape:cx="395.8591"
     inkscape:cy="514.94764"
     inkscape:window-width="1366"
     inkscape:window-height="705"
     inkscape:window-x="-8"
     inkscape:window-y="-8"
     inkscape:window-maximized="1"
     inkscape:current-layer="layer1" />
  <defs
     id="defs1" />
  <g
     inkscape:label="Layer 1"
     inkscape:groupmode="layer"
     id="layer1">
    <path
       id="path190"
       style="fill:#007d62;fill-opacity:1;stroke:none;stroke-width:2.41716;stroke-linecap:butt;stroke-linejoin:miter;stroke-dasharray:none;stroke-opacity:1"
       d="M 110.697,0.01164765 C 93.187065,-0.69488676 64.260172,30.975178 63.843975,31.431909 62.370571,29.308721 40.198145,-2.2005924 23.797214,0.74327715 20.228521,1.3839907 14.846871,1.0738153 10.103822,6.0152542 4.3725304,11.985793 -0.42578075,24.142573 0.03001816,35.632828 1.3573612,69.079424 8.0150067,91.509705 16.07393,106.32958 c 8.921432,16.4053 26.165447,24.90594 35.06098,27.28023 8.881077,2.37041 11.721877,0.86484 16.745001,0.97971 5.022672,0.11472 8.853972,-0.27533 13.381244,-0.16979 C 131.85242,135.59002 149.95955,30.184611 117.42256,2.523738 115.49817,0.88796826 113.21677,0.11417903 110.697,0.01265145 Z"
       sodipodi:nodetypes="scssssscssss" />
    <path
       id="path191"
       style="fill:#005845;fill-opacity:1;fill-rule:evenodd;stroke:none;stroke-width:0.604283;stroke-linecap:round;stroke-linejoin:round;stroke-miterlimit:4;stroke-dasharray:none;stroke-opacity:0.0470588;paint-order:markers fill stroke"
       d="m 54.345077,73.657916 a 8.8332611,11.485149 0 0 0 -8.83244,11.482367 8.8332611,11.485149 0 0 0 8.83244,11.481364 8.8332611,11.485149 0 0 0 8.834097,-11.481364 8.8332611,11.485149 0 0 0 -8.834097,-11.482367 z M 54.6247,97.311833 c -9.252552,0 -16.701785,4.898567 -16.701785,10.985767 0,0.10182 0,0.14957 0,0.26702 v 0 10.70857 H 54.6247 71.326033 v -10.70857 0 c 0,-0.10182 0,-0.17366 0,-0.26702 0,-6.0872 -7.449082,-10.985767 -16.701333,-10.985767 z" />
    <path
       id="path192"
       style="fill:#005845;fill-opacity:1;fill-rule:evenodd;stroke:none;stroke-width:0.604283;stroke-linecap:round;stroke-linejoin:round;stroke-miterlimit:4;stroke-dasharray:none;stroke-opacity:0.0470588;paint-order:markers fill stroke"
       d="m 90.760353,69.116134 a 8.8332611,11.485149 0 0 0 -8.83244,11.482511 8.8332611,11.485149 0 0 0 8.83244,11.481077 8.8332611,11.485149 0 0 0 8.833946,-11.481077 8.8332611,11.485149 0 0 0 -8.833946,-11.482511 z m 0.279473,23.653918 c -9.252402,0 -16.701785,4.898562 -16.701785,10.985628 0,0.10181 0,0.14957 0,0.2673 v 0 10.70829 h 16.701785 16.701784 v -10.70829 0 c 0,-0.10182 0,-0.17366 0,-0.2673 0,-6.087066 -7.44938,-10.985628 -16.701784,-10.985628 z" />
    <path
       id="path193"
       style="fill:#005140;fill-opacity:1;fill-rule:evenodd;stroke:none;stroke-width:0.604283;stroke-linecap:round;stroke-linejoin:round;stroke-miterlimit:4;stroke-dasharray:none;stroke-opacity:0.0470588;paint-order:markers fill stroke"
       d="m 72.973957,88.02163 c -4.877214,0 -8.831085,5.140766 -8.832441,11.482511 0,6.340889 3.955377,11.480499 8.832441,11.481079 4.877515,0 8.832289,-5.13919 8.833946,-11.481079 0,-6.342606 -3.955829,-11.483085 -8.833946,-11.482511 z m 0.279622,23.65392 c -9.252401,0 -16.701785,4.89856 -16.701785,10.98563 v 0.26715 0 l 0.105405,11.59996 16.807942,-0.22285 16.48917,-0.66867 v -10.70844 0 -0.26715 c 0,-6.08707 -7.449233,-10.98563 -16.701334,-10.98563 z"
       sodipodi:nodetypes="scscssscccccccss" />
    <path
       id="path194"
       style="fill:#005140;fill-opacity:1;fill-rule:evenodd;stroke:none;stroke-width:0.604283;stroke-linecap:round;stroke-linejoin:round;stroke-miterlimit:4;stroke-dasharray:none;stroke-opacity:0.0470588;paint-order:markers fill stroke"
       d="m 39.804083,87.632871 c -4.877063,0 -8.831236,5.140909 -8.83244,11.482511 0,6.340888 3.955678,11.480498 8.83244,11.481078 4.877515,0 8.832591,-5.13933 8.834097,-11.481078 0,-6.342606 -3.955979,-11.483084 -8.834097,-11.482511 z m 0.279623,23.654059 c -6.329838,0 -8.700082,1.55375 -11.006934,3.72569 -1.195587,1.12541 -1.469037,3.67794 -1.435006,5.28001 l 3.154002,3.04683 11.087493,6.75703 c 3.405316,1.5853 7.489286,3.10305 11.051655,3.93721 1.470091,0.34402 2.353531,0.33713 3.850274,0.63268 v -12.12681 0 -0.26715 c 0,-6.08707 -7.449233,-10.98549 -16.701484,-10.98549 z"
       sodipodi:nodetypes="scscssscccscccss" />
    <path
       id="path195"
       style="fill:#005140;fill-opacity:1;fill-rule:evenodd;stroke:none;stroke-width:0.604283;stroke-linecap:round;stroke-linejoin:round;stroke-miterlimit:4;stroke-dasharray:none;stroke-opacity:0.0470588;paint-order:markers fill stroke"
       d="m 107.52403,87.22418 c -4.87737,0 -8.83139,5.140909 -8.832294,11.48251 0,6.34117 3.955374,11.48079 8.832294,11.48122 4.87766,0 8.83229,-5.13933 8.83409,-11.48122 0,-6.342318 -3.95613,-11.483084 -8.83409,-11.48251 z m 0.27962,23.65406 c -9.252403,0 -16.701937,4.89871 -16.701937,10.98563 v 0.2673 0 l -0.105404,11.11583 7.05231,-2.69736 6.150351,-3.83869 5.67392,-5.12557 0.8482,-0.95848 1.00752,-1.03077 1.85557,-2.21711 c 1.62293,-1.93907 1.86204,-2.56902 2.53769,-3.38856 0.1587,-0.19273 0.29031,-0.92278 0.66645,-1.24672 0.0964,-0.0846 0.36756,0.0531 0,-0.1533 -2.45984,-1.38066 -5.67076,-1.71206 -8.98196,-1.71206 z"
       sodipodi:nodetypes="scscsssccccccccssssss" />
  </g>
</svg>
