<?xml version="1.0" encoding="UTF-8" standalone="no"?>
<!-- Created with Inkscape (http://www.inkscape.org/) -->

<svg
   width="75"
   height="75"
   viewBox="0 0 19.84375 19.84375"
   version="1.1"
   id="svg1"
   inkscape:version="1.3 (0e150ed6c4, 2023-07-21)"
   sodipodi:docname="drawing.svg"
   xmlns:inkscape="http://www.inkscape.org/namespaces/inkscape"
   xmlns:sodipodi="http://sodipodi.sourceforge.net/DTD/sodipodi-0.dtd"
   xmlns="http://www.w3.org/2000/svg"
   xmlns:svg="http://www.w3.org/2000/svg">
  <sodipodi:namedview
     id="namedview1"
     pagecolor="#a2a2a2"
     bordercolor="#666666"
     borderopacity="1.0"
     inkscape:showpageshadow="2"
     inkscape:pageopacity="0.0"
     inkscape:pagecheckerboard="0"
     inkscape:deskcolor="#d1d1d1"
     inkscape:document-units="mm"
     inkscape:zoom="1.8137767"
     inkscape:cx="129.28824"
     inkscape:cy="106.13214"
     inkscape:window-width="1366"
     inkscape:window-height="705"
     inkscape:window-x="-8"
     inkscape:window-y="-8"
     inkscape:window-maximized="1"
     inkscape:current-layer="layer1" />
  <defs
     id="defs1" />
  <g
     inkscape:label="Layer 1"
     inkscape:groupmode="layer"
     id="layer1">
    <path
       id="path702"
       style="fill:#ffffff;fill-opacity:1;fill-rule:evenodd;stroke:none;stroke-width:0.5;stroke-linecap:round;stroke-linejoin:round;stroke-miterlimit:4;stroke-dasharray:none;stroke-opacity:0.0470588;paint-order:markers fill stroke"
       d="M 9.7558644,2.2241978e-8 A 5.2475286,4.9963205 0 0 0 4.5088855,4.9951507 5.2475286,4.9963205 0 0 0 9.7558644,9.9897747 5.2475286,4.9963205 0 0 0 15.003888,4.9951507 5.2475286,4.9963205 0 0 0 9.7558644,2.2241978e-8 Z M 9.9219985,10.290077 C 4.4254189,10.290077 0,12.421074 0,15.069108 c 0,0.04389 0,0.06496 0,0.116224 v 0 4.658419 H 9.9219985 19.84375 v -4.658419 0 c 0,-0.04389 0,-0.07549 0,-0.116224 0,-2.648034 -4.425357,-4.779031 -9.9217515,-4.779031 z" />
  </g>
</svg>
