<?xml version="1.0" encoding="UTF-8" standalone="no"?>
<!-- Created with Inkscape (http://www.inkscape.org/) -->

<svg
   width="75"
   height="60"
   viewBox="0 0 19.84375 15.875"
   version="1.1"
   id="svg1"
   inkscape:version="1.3 (0e150ed6c4, 2023-07-21)"
   sodipodi:docname="orange-heads.svg"
   xmlns:inkscape="http://www.inkscape.org/namespaces/inkscape"
   xmlns:sodipodi="http://sodipodi.sourceforge.net/DTD/sodipodi-0.dtd"
   xmlns="http://www.w3.org/2000/svg"
   xmlns:svg="http://www.w3.org/2000/svg">
  <sodipodi:namedview
     id="namedview1"
     pagecolor="#ffffff"
     bordercolor="#666666"
     borderopacity="1.0"
     inkscape:showpageshadow="2"
     inkscape:pageopacity="0.0"
     inkscape:pagecheckerboard="0"
     inkscape:deskcolor="#d1d1d1"
     inkscape:document-units="mm"
     inkscape:zoom="2.5650675"
     inkscape:cx="69.588811"
     inkscape:cy="68.029398"
     inkscape:window-width="1366"
     inkscape:window-height="705"
     inkscape:window-x="-8"
     inkscape:window-y="-8"
     inkscape:window-maximized="1"
     inkscape:current-layer="layer1" />
  <defs
     id="defs1" />
  <g
     inkscape:label="Layer 1"
     inkscape:groupmode="layer"
     id="layer1">
    <path
       id="path13"
       style="fill:#dba900;fill-opacity:1;fill-rule:evenodd;stroke:none;stroke-width:0.604282;stroke-linecap:round;stroke-linejoin:round;stroke-miterlimit:4;stroke-dasharray:none;stroke-opacity:0.0470588;paint-order:markers fill stroke"
       d="M 5.8995558,1.100723 A 1.951332,2.7834381 0 0 0 3.9484335,3.8834807 1.951332,2.7834381 0 0 0 5.8995558,6.6659908 1.951332,2.7834381 0 0 0 7.8510733,3.8834807 1.951332,2.7834381 0 0 0 5.8995558,1.100723 Z m 0.061744,5.7325452 c -2.0439163,0 -3.6895178,1.1871846 -3.6895178,2.6624252 0,0.024763 0,0.03615 0,0.064668 v 0 2.5952756 h 3.6895178 3.6894784 v -2.5952756 0 c 0,-0.024763 0,-0.042097 0,-0.064668 0,-1.4752406 -1.6455225,-2.6624252 -3.6894784,-2.6624252 z" />
    <path
       id="path16"
       style="fill:#dba900;fill-opacity:1;fill-rule:evenodd;stroke:none;stroke-width:0.604282;stroke-linecap:round;stroke-linejoin:round;stroke-miterlimit:4;stroke-dasharray:none;stroke-opacity:0.0470588;paint-order:markers fill stroke"
       d="M 13.94399,0 A 1.951332,2.7834381 0 0 0 11.992828,2.7828071 1.951332,2.7834381 0 0 0 13.94399,5.5652676 1.951332,2.7834381 0 0 0 15.895469,2.7828071 1.951332,2.7834381 0 0 0 13.94399,0 Z m 0.0617,5.7325451 c -2.043917,0 -3.689518,1.1871844 -3.689518,2.6623753 0,0.02476 0,0.036149 0,0.064771 v 0 2.5951786 h 3.689518 3.689517 v -2.5951786 0 c 0,-0.02476 0,-0.042092 0,-0.064771 0,-1.4751909 -1.645601,-2.6623753 -3.689517,-2.6623753 z" />
    <path
       id="path17"
       style="fill:#b98e00;fill-opacity:1;fill-rule:evenodd;stroke:none;stroke-width:0.604282;stroke-linecap:round;stroke-linejoin:round;stroke-miterlimit:4;stroke-dasharray:none;stroke-opacity:0.0470588;paint-order:markers fill stroke"
       d="m 10.014804,4.5817575 c -1.0774212,0 -1.9508064,1.2458654 -1.9511224,2.7828072 0,1.5367438 0.8737802,2.7823123 1.9511224,2.7824603 1.077461,0 1.951162,-1.2455184 1.951477,-2.7824603 0,-1.53714 -0.873819,-2.7829558 -1.951477,-2.7828072 z m 0.06178,5.7325455 c -2.0439554,0 -3.6895175,1.187185 -3.6895175,2.662376 v 0.06477 0 l 0.023307,2.81128 3.7129825,-0.05402 3.642628,-0.162078 v -2.595177 0 -0.06477 c 0,-1.475191 -1.645641,-2.662375 -3.689439,-2.662375 z"
       sodipodi:nodetypes="scscssscccccccss" />
    <path
       id="path18"
       style="fill:#b98e00;fill-opacity:1;fill-rule:evenodd;stroke:none;stroke-width:0.604282;stroke-linecap:round;stroke-linejoin:round;stroke-miterlimit:4;stroke-dasharray:none;stroke-opacity:0.0470588;paint-order:markers fill stroke"
       d="m 2.68736,4.4875711 c -1.0774212,0 -1.95088531,1.2458653 -1.95116192,2.7827576 0,1.5367439 0.87381972,2.7823123 1.95116192,2.7824603 1.0775002,0 1.9512014,-1.2455183 1.9515174,-2.7824603 0,-1.5370904 -0.8738987,-2.7829062 -1.9515174,-2.7827576 z m 0.061783,5.7325449 c -1.398309,0 -1.92196876,0.376597 -2.43152563,0.902943 -0.26416057,0.272753 -0.32452215,0.891353 -0.31701647206,1.279637 L 0.69736578,13.141084 3.1466682,14.77865 c 0.752267,0.384222 1.6544503,0.752054 2.4414015,0.954193 0.3247591,0.0834 0.5199068,0.08171 0.8505126,0.153314 v -2.938943 0 -0.06472 c 0,-1.475191 -1.6455621,-2.662376 -3.6894389,-2.662376 z"
       sodipodi:nodetypes="scscssscccscccss" />
    <path
       id="path19"
       style="fill:#b98e00;fill-opacity:1;fill-rule:evenodd;stroke:none;stroke-width:0.604282;stroke-linecap:round;stroke-linejoin:round;stroke-miterlimit:4;stroke-dasharray:none;stroke-opacity:0.0470588;paint-order:markers fill stroke"
       d="m 17.647177,4.3884822 c -1.077421,0 -1.950886,1.2459148 -1.951084,2.7828073 0,1.5367933 0.873741,2.7824112 1.951084,2.7825101 1.07754,0 1.951121,-1.2455187 1.951517,-2.7825101 0,-1.537041 -0.873938,-2.7829063 -1.951517,-2.7828073 z m 0.06179,5.7325948 c -2.043916,0 -3.689558,1.187234 -3.689558,2.662375 v 0.06483 0 l -0.02331,2.693919 1.557904,-0.653709 1.358648,-0.930327 1.253409,-1.242201 0.187406,-0.232246 0.222562,-0.249827 0.40989,-0.537338 c 0.358534,-0.469892 0.411351,-0.622611 0.560596,-0.821186 0.03515,-0.04655 0.06416,-0.22363 0.147229,-0.302168 0.02133,-0.0203 0.08122,0.01287 0,-0.03714 -0.543372,-0.334608 -1.252697,-0.414929 -1.984186,-0.414929 z"
       sodipodi:nodetypes="scscsssccccccccssssss" />
  </g>
</svg>
