<?xml version="1.0" encoding="UTF-8" standalone="no"?>
<!-- Created with Inkscape (http://www.inkscape.org/) -->

<svg
   width="150"
   height="150"
   viewBox="0 0 39.687499 39.6875"
   version="1.1"
   id="svg1"
   inkscape:version="1.3 (0e150ed6c4, 2023-07-21)"
   sodipodi:docname="spiral-check.svg"
   xmlns:inkscape="http://www.inkscape.org/namespaces/inkscape"
   xmlns:sodipodi="http://sodipodi.sourceforge.net/DTD/sodipodi-0.dtd"
   xmlns="http://www.w3.org/2000/svg"
   xmlns:svg="http://www.w3.org/2000/svg">
  <sodipodi:namedview
     id="namedview1"
     pagecolor="#cfcfcf"
     bordercolor="#666666"
     borderopacity="1.0"
     inkscape:showpageshadow="2"
     inkscape:pageopacity="0.0"
     inkscape:pagecheckerboard="0"
     inkscape:deskcolor="#d1d1d1"
     inkscape:document-units="mm"
     inkscape:zoom="1.8189001"
     inkscape:cx="72.29644"
     inkscape:cy="70.097308"
     inkscape:window-width="1366"
     inkscape:window-height="705"
     inkscape:window-x="-8"
     inkscape:window-y="-8"
     inkscape:window-maximized="1"
     inkscape:current-layer="layer1" />
  <defs
     id="defs1" />
  <g
     inkscape:label="Layer 1"
     inkscape:groupmode="layer"
     id="layer1">
    <path
       id="path123"
       style="fill:none;fill-opacity:1;stroke:#ffffff;stroke-width:1.99999;stroke-dasharray:none;stroke-dashoffset:0;stroke-opacity:1"
       d="M 20.857542,1.001063 A 5.544,5.632118 0 0 0 16.241583,3.5227237 16.632,16.896353 0 0 0 12.632842,4.7975442 5.544,5.632118 0 0 0 10.72657,4.4522041 5.544,5.632118 0 0 0 5.1823686,10.084509 a 5.544,5.632118 0 0 0 0.2508988,1.65901 16.632,16.896353 0 0 0 -1.4462909,3.385711 5.544,5.632118 0 0 0 -2.98697947,4.981657 5.544,5.632118 0 0 0 3.12971437,5.061509 16.632,16.896353 0 0 0 0.5252935,1.430002 5.544,5.632118 0 0 0 -0.6457746,2.609045 5.544,5.632118 0 0 0 5.544201,5.631659 5.544,5.632118 0 0 0 1.9275947,-0.369554 16.632,16.896353 0 0 0 4.019556,1.750376 5.544,5.632118 0 0 0 4.573004,2.463656 5.544,5.632118 0 0 0 4.648045,-2.565245 16.632,16.896353 0 0 0 2.023235,-0.767734 5.544,5.632118 0 0 0 2.216272,0.478677 5.544,5.632118 0 0 0 5.544202,-5.631336 5.544,5.632118 0 0 0 -0.265907,-1.71949 16.632,16.896353 0 0 0 1.149435,-2.430295 5.544,5.632118 0 0 0 3.298637,-5.145772 A 5.544,5.632118 0 0 0 36.12283,16.159224 16.632,16.896353 0 0 0 35.302337,13.53027 5.544,5.632118 0 0 0 35.550959,11.877932 5.544,5.632118 0 0 0 30.006654,6.2455189 5.544,5.632118 0 0 0 29.668603,6.3057839 16.632,16.896353 0 0 0 25.843949,4.2082383 5.544,5.632118 0 0 0 20.857852,1.0352849 Z" />
    <path
       style="fill:none;stroke:#ffffff;stroke-width:3;stroke-linecap:round;stroke-linejoin:round;stroke-dasharray:none;stroke-opacity:1"
       d="m 13.98558,20.267576 3.121925,5.32194 9.27275,-9.714614"
       id="path156"
       sodipodi:nodetypes="ccc" />
  </g>
</svg>
